# xmcd
#
# Track frame offsets: 
#        150
#        12379
#        23882
#        37260
#        52573
#        62336
#        74852
#        87538
#        103785
#        117509
#        132474
#        144741
#        157255
#        168865
#        182015
#        191752
#        207886
#
# Disc length: 2938 seconds
#
# Revision: 0
# Processed by: cddbd v1.5.2PL0 Copyright (c) Steve Scherf et al.
# Submitted via: ExactAudioCopy v0.95b4
#
DISCID=000b7811
DTITLE=배호 - 천상의 가수 배호 전집 (아세아-2006) (10 CD)-05
DYEAR=2006
DGENRE=Country
TTITLE0=물방아 고향
TTITLE1=먼 여로
TTITLE2=서울의 밤거리
TTITLE3=연가
TTITLE4=꿈
TTITLE5=후조
TTITLE6=안녕
TTITLE7=종말
TTITLE8=고향 하늘
TTITLE9=해당화 피는 마을
TTITLE10=물방아 고향(MR)
TTITLE11=안녕(MR)
TTITLE12=먼 여로(MR)
TTITLE13=서울의 밤거리(MR)
TTITLE14=꿈(MR)
TTITLE15=종말(MR)
TTITLE16=후조(MR)
EXTD=
EXTT0=
EXTT1=
EXTT2=
EXTT3=
EXTT4=
EXTT5=
EXTT6=
EXTT7=
EXTT8=
EXTT9=
EXTT10=
EXTT11=
EXTT12=
EXTT13=
EXTT14=
EXTT15=
EXTT16=
PLAYORDER=
